<?xml version="1.0" encoding="utf-8"?>
<!-- Generator: Adobe Illustrator 25.3.1, SVG Export Plug-In . SVG Version: 6.00 Build 0)  -->
<svg version="1.1" id="Layer_1" xmlns="http://www.w3.org/2000/svg" xmlns:xlink="http://www.w3.org/1999/xlink" x="0px" y="0px"
	 viewBox="0 0 1092 174.1" style="enable-background:new 0 0 1092 174.1;" xml:space="preserve">
<style type="text/css">
	.st0{fill:#FFFFFF;}
	.st1{fill:#21E3A6;}
</style>
<g>
	<path class="st0" d="M79.2,85.8L79.2,85.8c0,9.2,7.4,16.6,16.6,16.6h37.9c-0.8,5.3-2.5,10.3-5.3,14.9c-3.9,6.5-9.3,11.6-16.3,15.3
		c-7,3.7-14.9,5.6-23.8,5.6c-9.3,0-17.8-2.3-25.5-6.9c-7.7-4.6-13.6-10.8-17.9-18.6c-4.3-7.8-6.4-16.4-6.4-25.7
		c0-9.3,2.1-17.9,6.4-25.7c4.3-7.8,10.2-14,17.9-18.6c7.6-4.6,16.1-6.9,25.5-6.9c7.2,0,14.1,1.4,20.7,4.2c6.5,2.8,12.2,6.6,17,11.5
		l23.7-26.1c-8.1-8.1-17.4-14.3-27.9-18.7C111.3,2.2,100.2,0,88.4,0C72.5,0,57.7,3.9,44.2,11.7C30.7,19.5,19.9,30.1,12,43.4
		C4,56.6,0,71.2,0,87c0,15.8,4,30.3,12,43.6c8,13.3,18.7,23.8,32.2,31.6c13.5,7.8,28.3,11.7,44.2,11.7c15.8,0,30.1-3.8,43-11.5
		c12.9-7.6,23-18.1,30.4-31.4c7.4-13.3,11.1-28,11.1-44.1v0c0-9.3-7.6-16.9-16.9-16.9H95C86.3,70,79.2,77.1,79.2,85.8z"/>
	<path class="st1" d="M814.9,0.3c-48,0-86.9,38.9-86.9,86.9c0,48,38.9,86.9,86.9,86.9c48,0,86.9-38.9,86.9-86.9
		C901.8,39.2,862.9,0.3,814.9,0.3z M814.9,133.7c-25.7,0-46.5-20.8-46.5-46.5c0-25.7,20.8-46.5,46.5-46.5
		c25.7,0,46.5,20.8,46.5,46.5C861.4,112.8,840.6,133.7,814.9,133.7z"/>
	<path class="st0" d="M296.3,171.7h36.2l-57.5-149c-5.8-15-14.7-22.5-26.6-22.5c-11.9,0-20.8,7.5-26.6,22.5l-57.5,149h35.3l15.7-42
		h65.2L296.3,171.7z M226.6,99.7l17.3-46.4c1.4-3.8,6.8-3.8,8.3,0l17.3,46.4H226.6z"/>
	<path class="st0" d="M407.7,123.1V48.7c0-7-5.1-12.3-12.1-12.3c-7,0-12.1,5.3-12.1,12.3v122.9h-38.6V52.4
		c0-31.4,21.5-52.2,50.7-52.2c29.2,0,50.7,20.8,50.7,52.2v74.4c0,6.3,4.6,11.1,10.9,11.1c6.3,0,10.9-4.8,10.9-11.1V52.4
		c0-31.4,21.5-52.2,50.7-52.2s50.7,20.8,50.7,52.2v119.3h-38.6V48.7c0-7-5.1-12.3-12.1-12.3c-7,0-12.1,5.3-12.1,12.3v74.4
		c0,29.2-20.8,51-49.5,51S407.7,152.4,407.7,123.1z"/>
	<path class="st1" d="M985.8,121.2v-70c0-9.7-6.3-15.9-14.5-15.9s-14.5,6.3-14.5,15.9v120.5h-38.6V53.6c0-31.4,22.5-53.4,53.1-53.4
		c30.7,0,53.1,22,53.1,53.4v69.3c0,9.7,6.3,15.9,14.5,15.9s14.5-6.3,14.5-15.9V2.6h38.6v118.6c0,30.2-22.2,52.9-53.1,52.9
		C1008.2,174.1,985.8,151.4,985.8,121.2z"/>
	<path class="st0" d="M588.5,53.2c0,12.7,3.7,23.9,10.4,32.8c-6.7,8.9-10.4,20.1-10.4,32.8c0,30.5,21.7,53,54.5,53h72.2v-38.4h-76
		c-7.3,0-12.9-7.3-12.9-14.6c0-7.3,5.6-14.6,12.9-14.6h1.6c0.7,0,1.4,0,2.2,0h46.1c11.1,0,20.2-7.1,20.2-18.2s-9-18.2-20.2-18.2v0
		H643c-0.7,0-1.5,0-2.2,0h-1.6c-7.3,0-12.9-7.3-12.9-14.6c0-7.3,5.6-14.6,12.9-14.6h76V0.2H643C610.2,0.2,588.5,22.6,588.5,53.2z"/>
</g>
</svg>
